<svg xmlns="http://www.w3.org/2000/svg" xmlns:xlink="http://www.w3.org/1999/xlink" width="474" height="312.666" viewBox="0 0 474 312.666">
  <defs>
    <clipPath id="clip-path">
      <rect id="Rectangle_70" data-name="Rectangle 70" width="474" height="312.666" fill="#dddfe0"/>
    </clipPath>
  </defs>
  <g id="Group_301" data-name="Group 301" transform="translate(0 0.004)">
    <g id="Group_300" data-name="Group 300" transform="translate(0 -0.004)" clip-path="url(#clip-path)">
      <path id="Path_214" data-name="Path 214" d="M1692.072,194.456c-.016-.1-.032-.2-.042-.3a.756.756,0,0,1,.1-.581c.088-.079.2-.077.547-.028l.048.007,2.073,7.761a5.221,5.221,0,0,0,3.924,4.457,12.716,12.716,0,0,0,4.529,1.165,5.323,5.323,0,0,0,.763-.055,3.783,3.783,0,0,1-2.224.611c-.331,0-.664-.014-1.016-.031a6.839,6.839,0,0,0-5.92,2.077c-.191.154-.383.307-.576.456a18.809,18.809,0,0,1-6.3,3.17c-.506-2.669.207-5.1,1.025-7.88l.014-.048c.253-.86.536-1.733.809-2.578a44.139,44.139,0,0,0,1.648-6.069,1.68,1.68,0,0,0,.643-1.047,3.24,3.24,0,0,0-.04-1.086" transform="translate(-1253.562 -143.724)" fill="#dddfe0"/>
      <path id="Path_215" data-name="Path 215" d="M1641.894,183.95c3.741-.922,7.6-1.875,11.419-2.831a48.464,48.464,0,0,1-1.482,5.253c-.276.853-.562,1.734-.82,2.611l-.014.048c-.838,2.848-1.632,5.549-1.042,8.554a18.684,18.684,0,0,1-5.44.369,13.739,13.739,0,0,0-1.014-3.482,37.844,37.844,0,0,0-1.9-3.636,19.536,19.536,0,0,1-2.649-6.162l2.938-.725" transform="translate(-1217.281 -134.519)" fill="#dddfe0"/>
      <path id="Path_216" data-name="Path 216" d="M1490.7,254.008a2.628,2.628,0,0,0,.1-2.121l-.115-.29-.3-.089a1.092,1.092,0,0,1-.734-.754c-.115-.468.106-.861.656-1.168a14.075,14.075,0,0,1,6.61-1.769c.726-.013,1.476.033,2.2.077.785.047,1.6.1,2.41.077a7.66,7.66,0,0,0,4.707-1.447,8.592,8.592,0,0,0,1.306-1.414,6.5,6.5,0,0,1,1.069-1.175c.265-.2.658-.288.9-.5.707-.637.24-1.323-.293-1.9a1.4,1.4,0,0,1-.473-.981c.034-.516.544-.847.982-1.122s.913-.7.819-1.206a1.042,1.042,0,0,0-.893-.73c-.4-.072-.818-.015-1.224-.063a1.154,1.154,0,0,1-.987-.623,1.111,1.111,0,0,1,.742-1.285,10.326,10.326,0,0,1,1.605-.33c1.557-.377,2.669-2.82,3.4-4.071l.231-.393c.973-1.651,1.99-3.168,3.713-3.6,2.641-.663,5.3-1.324,7.943-1.976a21.062,21.062,0,0,0,2.78,6.489,36.91,36.91,0,0,1,1.833,3.51c1.336,3.091,1.123,5.332.854,8.168-.075.793-.153,1.614-.207,2.521-.24,4.084.614,7.7,1.521,11.545a24.019,24.019,0,0,1,.516,3.327c-1.866-.077-6.044-.271-7.2-.509-.835-.172-3.35-2.838-5.3-5.316l-.259-.329-32.907,8.358-.923-2.626a22.748,22.748,0,0,0,4.915-6.283" transform="translate(-1103.517 -167.224)" fill="#dddfe0"/>
      <path id="Path_217" data-name="Path 217" d="M1514.647,374.938a9.464,9.464,0,0,1,.3,1.181,5.465,5.465,0,0,0,1.067,2.59c.2.24.407.468.609.689a6.644,6.644,0,0,1,1.107,1.444,1.565,1.565,0,0,1-.16,1.84,2.474,2.474,0,0,1-.87.322,3.02,3.02,0,0,0-2.5,2.28c-.064.149-.128.3-.2.439a6.989,6.989,0,0,1-4.191,3.379,21.532,21.532,0,0,1-5.52.794c-.414.024-.826.048-1.233.076a26.736,26.736,0,0,0-3.957.676,30.922,30.922,0,0,1-3.145.59l-.2.023c-.273.032-.551.064-.829.1l-.044-.024-.016.031c-2.112.27-4.312.735-5.521,2.576a7.657,7.657,0,0,0-.7,1.47,6.6,6.6,0,0,1-.572,1.226,1.745,1.745,0,0,1-1.085.746.6.6,0,0,1-.5-.11,1.887,1.887,0,0,1-.406-.654,5,5,0,0,0-.317-.6c-1.131-1.765-3.453-1.594-5.318-1.456l-.133.01a5.184,5.184,0,0,1-3.411-1.2,1.466,1.466,0,0,1-.546-.994,22.13,22.13,0,0,0,.115-2.593,73.861,73.861,0,0,0-2.467-18.719,39.653,39.653,0,0,0,3.362-2.554l1.139,3.24,33.238-8.442a38.45,38.45,0,0,0,3.874,4.228c-1.838,1.719-1.862,4.845-.977,7.406" transform="translate(-1094.774 -269.832)" fill="#dddfe0"/>
      <path id="Path_218" data-name="Path 218" d="M1231.775,603.15c-8.195,1.079-15.231,1.908-18.844,2.323a4.874,4.874,0,0,0,.1-1.667,4.877,4.877,0,0,1,0-1.006,4.45,4.45,0,0,1,1.282-2.022l.063-.068a22.291,22.291,0,0,0,4.167-5.624,34.162,34.162,0,0,0,2-5.294l.072.6,9.664-1.158c2.714-.325,6.44-1.108,7.455-4.136a8.7,8.7,0,0,0,.332-1.732,3.449,3.449,0,0,1,.738-2.2,3.686,3.686,0,0,1,1.925-.649,4.339,4.339,0,0,0,2.709-1.113,4.261,4.261,0,0,0,.856-2.755,4.948,4.948,0,0,1,.3-1.687c.593-1.294,2.445-1.58,3.885-1.191a14.082,14.082,0,0,1,2.485,1.029,13.07,13.07,0,0,0,6.813,1.61c.566.025,1.15.052,1.715.1,2.354.2,4.027.9,4.972,2.074a8.692,8.692,0,0,1,1.379,3.457,10.129,10.129,0,0,0,1.544,3.856,5.8,5.8,0,0,0,1.612,1.426l-9.308,11.439c-11.7,1.946-22.909,3.737-27.915,4.4" transform="translate(-900.865 -426.024)" fill="#dddfe0"/>
      <path id="Path_219" data-name="Path 219" d="M1044.779,758.511h-25.05a5.422,5.422,0,0,1,.433-1.13l.081-.155c1.039-2,2.332-4.5.97-6.578l-.105-.161-.176-.077a30.8,30.8,0,0,1-3.371-1.918l-.363-.225c1.247-7.427.332-16.207-.558-24.706-.044-.421-.088-.845-.132-1.269h37.206v4.479h3.81c-.082.317-.165.633-.251.942-1.194,4.267-3.51,8.208-5.75,12.018-.786,1.338-1.6,2.721-2.355,4.1-3.075,5.62-4.5,10.369-4.387,14.675" transform="translate(-754.978 -536.459)" fill="#dddfe0"/>
      <path id="Path_220" data-name="Path 220" d="M721.053,708.815l.339-4.129c10.516,1.023,19.033,1.808,21.057,1.874,2.87.093,14.753.117,26.437.117,11.255,0,22.323-.023,24.96-.028.19,2.084.407,4.17.623,6.229.861,8.217,1.744,16.7.651,23.847-2.84-1.7-5.838-3.217-8.172-2.46a7.622,7.622,0,0,0-3.165,2.438,14.3,14.3,0,0,1-1.3,1.321c-2.822,2.39-7.076,1.957-10.466,1.313a78.909,78.909,0,0,1-25.834-9.819V711.5Z" transform="translate(-535.539 -523.382)" fill="#dddfe0"/>
      <path id="Path_221" data-name="Path 221" d="M177.14,443.378a5.35,5.35,0,0,1-.076,3.362,5.057,5.057,0,0,1-1.3,1.415l-33.025-51.978,8.026-32.445c11.909,3.521,23.17,6.845,26.915,7.932,3.442,1,10.2,2.381,17.253,3.711l-11.263,61.267a4.418,4.418,0,0,0-2.591-.079c-1.52.36-3.4,1.466-3.95,3.042a7.437,7.437,0,0,0,.01,3.775" transform="translate(-106.016 -270.148)" fill="#dddfe0"/>
      <path id="Path_222" data-name="Path 222" d="M288.436,111.843c.636-2.049.328-4.34.03-6.555a17.748,17.748,0,0,1-.165-5.711c.514-2.542,1.2-5.117,1.869-7.607.334-1.247.679-2.537,1-3.806l4.94-19.675q2.323.554,4.672,1.1c-.743,2.872-3.665,14.226-3.928,16.331a12.043,12.043,0,0,0,2.43,8.859c.343.419.674.817.991,1.2,3.455,4.153,5.032,6.049,2.471,11.568-1.284,2.767-1.164,5.224.319,6.573a6.068,6.068,0,0,0,2.607,1.2c.266.074.517.144.762.223,2.768.9,2.706,3.271,2.635,6.015-.011.423-.022.845-.022,1.26,0,1.814.383,5.051,2.918,6.355a4.792,4.792,0,0,0,2.23.511,13.376,13.376,0,0,0,3.986-.852c.193-.062.385-.124.574-.184,1.858-.585,4.854-.681,5.941.566l-4.543,26.772c-4.536-.755-32.133-5.391-40.388-7.788-.718-.209-1.714-.5-2.936-.858.472-2.33.989-4.733,1.492-7.067,1.115-5.169,2.267-10.513,3.056-15.642.074-.483.129-.934.181-1.371a8.369,8.369,0,0,1,1.293-4.218,16.7,16.7,0,0,1,2.208-2.446,11.257,11.257,0,0,0,3.378-4.748" transform="translate(-205.604 -50.867)" fill="#dddfe0"/>
      <path id="Path_223" data-name="Path 223" d="M715.127,268.509l53.736,2.725a64.659,64.659,0,0,1,1.2,28.36,21.193,21.193,0,0,0-.456,5.1c-.61-.084-1.208-.212-1.791-.336a11.8,11.8,0,0,0-4.488-.345c-.9.142-1.776.361-2.629.573a26.66,26.66,0,0,1-2.795.591,19.927,19.927,0,0,1-7.513-.81,30.393,30.393,0,0,0-5.3-.932c-10.391-.6-20.941-1.573-31.145-2.514l-1.924-.177Z" transform="translate(-528.828 -199.425)" fill="#dddfe0"/>
      <path id="Path_224" data-name="Path 224" d="M991.633,391.449a10.362,10.362,0,0,0,3.683,3.877,16.288,16.288,0,0,1,2.474,2.1c2.743,3.081,2.275,7.958.923,11.5a48.253,48.253,0,0,1-2.6,5.4,44.2,44.2,0,0,0-2.908,6.2c-.067.193-.126.388-.186.584H957.825a17.74,17.74,0,0,1-.611-4.6c-.028-.593-.057-1.205-.107-1.806-.411-5-2.528-8.726-4.768-12.669-1.858-3.269-1.559-6.594-.959-9.7.092-.473.173-.951.253-1.43Z" transform="translate(-706.266 -290.33)" fill="#dddfe0"/>
      <path id="Path_225" data-name="Path 225" d="M1269.565,429.56l4.122,29.9a3.505,3.505,0,0,0-1.633,1.623,5.952,5.952,0,0,0-.413,2.136,3.189,3.189,0,0,1-.523,1.974,3.316,3.316,0,0,1-1.96.71,4.729,4.729,0,0,0-2.595.974,4.535,4.535,0,0,0-1.143,2.994,7.623,7.623,0,0,1-.274,1.478c-.375,1.119-1.446,2.676-6.389,3.268l-9.387,1.125c.026-.1.054-.2.079-.3a42.065,42.065,0,0,0,.912-11.2c-.006-.692-.012-1.389-.012-2.1V432.733a5.858,5.858,0,0,0,2.81-1.419Z" transform="translate(-927.929 -319.041)" fill="#dddfe0"/>
      <path id="Path_226" data-name="Path 226" d="M1147.06,418.258a5.735,5.735,0,0,0,1.07.818,2.985,2.985,0,0,1,1.026.88,2.775,2.775,0,0,1,.228,1.166,4.57,4.57,0,0,0,.257,1.446,3.341,3.341,0,0,0,3.147,1.878V453.7c0,.711.006,1.413.013,2.108a41.079,41.079,0,0,1-.873,10.867,33.062,33.062,0,0,1-2.187,6.067,21.31,21.31,0,0,1-3.953,5.307l-.063.069a5.489,5.489,0,0,0-1.6,2.684,3.375,3.375,0,0,0-.038.4,4.9,4.9,0,0,0-.486-.5,12.891,12.891,0,0,0-1.056-.823,7.492,7.492,0,0,1-1.332-1.126,7.366,7.366,0,0,1-.894-3.014,13.474,13.474,0,0,0-.52-2.32c-.1-.259-.181-.507-.263-.744a5.92,5.92,0,0,0-2.884-3.9c-.216-.121-.438-.237-.663-.355a4.549,4.549,0,0,1-2.255-1.816,4.37,4.37,0,0,1,.12-2.742,8.776,8.776,0,0,0,.348-2.324c-.076-2.678-2.428-4.475-3.824-5.307-.59-.352-1.207-.669-1.8-.976a14.348,14.348,0,0,1-3.365-2.134c-1.923-1.8-3.493-5.852-1.589-11.32a43.256,43.256,0,0,1,2.827-6.017,49.176,49.176,0,0,0,2.67-5.548c1.45-3.794,1.56-7.445.394-10.291Z" transform="translate(-833.89 -310.647)" fill="#dddfe0"/>
      <path id="Path_227" data-name="Path 227" d="M700.552,439.785l1.883-19.526,1.929.177c10.214.942,20.776,1.916,31.189,2.517a29.388,29.388,0,0,1,5.076.9,26.376,26.376,0,0,0,6.162.956,13.354,13.354,0,0,0,1.825-.122,28.012,28.012,0,0,0,2.93-.617c.826-.205,1.68-.417,2.52-.55a10.629,10.629,0,0,1,4.018.332c.7.15,1.425.3,2.19.387a11.878,11.878,0,0,0,1.428,4.169c2.168,3.815,4.216,7.419,4.6,12.139.048.578.076,1.179.1,1.761a14.744,14.744,0,0,0,1.212,6.238,16.931,16.931,0,0,0,2.048,2.964,14,14,0,0,1,1.481,2.071c-3.293.147-14.625.568-25.383-.045-11.4-.649-26.864-2.35-30.073-2.71l.438-8.947Z" transform="translate(-520.312 -312.133)" fill="#dddfe0"/>
      <path id="Path_228" data-name="Path 228" d="M524.483,341.345l-55.605-7.467,1.1-9.6,5.335-31.435,53.171,7.019Z" transform="translate(-348.244 -217.502)" fill="#dddfe0"/>
      <path id="Path_229" data-name="Path 229" d="M333.313,411.469c9.653,1.8,19.539,3.46,22.048,3.878l-1.176,10.259,18.213,2.446-7.144,43.276-41.442-8.172Z" transform="translate(-240.5 -305.604)" fill="#dddfe0"/>
      <path id="Path_230" data-name="Path 230" d="M507.292,485.556l-7.147,43.295c5.184.535,38.6,3.977,57.967,5.81l2.233-41.98Z" transform="translate(-371.466 -360.63)" fill="#dddfe0"/>
      <path id="Path_231" data-name="Path 231" d="M806.071,584.662c-.052-3.864-.112-8.243-1.728-12l-.373-.862a27.53,27.53,0,0,1-2.724-9.037,6.869,6.869,0,0,0-.245-1.258c-1.592.075-6.885.3-13.414.3-3.923,0-8.29-.081-12.568-.325-11.334-.646-26.67-2.327-30.063-2.707l-1.469,33.014c6.021.564,10.433.946,11.788.99,5.577.18,45.452.1,51.242.088-.236-2.775-.411-5.535-.447-8.207" transform="translate(-552.202 -415.012)" fill="#dddfe0"/>
      <path id="Path_232" data-name="Path 232" d="M1026.518,575.743h-2.853v-4.479H985.04c-.449-4.387-.854-8.839-.911-13.05-.054-3.984-.116-8.5-1.833-12.487l-.374-.865a26.542,26.542,0,0,1-2.625-8.656,9.2,9.2,0,0,0-2.532-5.272,16.615,16.615,0,0,1-1.81-2.57h34.295a15.135,15.135,0,0,0-.323,4.826,9.381,9.381,0,0,0,2.775,5.984,15.543,15.543,0,0,0,3.658,2.34c.578.3,1.176.6,1.732.936,1.169.7,3.139,2.175,3.2,4.239a7.733,7.733,0,0,1-.312,1.984,5.362,5.362,0,0,0-.046,3.569,5.608,5.608,0,0,0,2.835,2.432c.213.112.426.223.631.337,1.474.824,1.783,1.717,2.3,3.2.085.245.173.5.271.767a12.706,12.706,0,0,1,.458,2.089,7.814,7.814,0,0,0,1.186,3.639,8.565,8.565,0,0,0,1.554,1.331,11.592,11.592,0,0,1,.951.739,2.192,2.192,0,0,1,.881,2.1l.079.028c-.019.012-.034.026-.054.038a1.056,1.056,0,0,1-.328.042,2,2,0,0,0-.836.172,3.664,3.664,0,0,0-1.413,1.522l-.021.035a18.32,18.32,0,0,0-1.9,5.034" transform="translate(-724.117 -392.424)" fill="#dddfe0"/>
      <path id="Path_233" data-name="Path 233" d="M1429.587,530.208a9.039,9.039,0,0,1-1.319-3.385c-.258-1.043-1.493-2.933-1.409-3.857.1-1.065,1.964-1.8,2.583-2.543a12.616,12.616,0,0,0,1.954-3.39c.266-.66.506-1.342.738-2a15.3,15.3,0,0,1,2.553-5.152,15.462,15.462,0,0,1,1.577-1.5c.986-.852,2.145-3.1,3.17-3.531,1.245-.522,3.075.972,4.407.874l.134-.01c1.6-.118,3.423-.252,4.14.867a4.035,4.035,0,0,1,.235.455,2.912,2.912,0,0,0,.758,1.107,1.818,1.818,0,0,0,1.17.411,2.213,2.213,0,0,0,.335-.026,3.035,3.035,0,0,0,1.964-1.313,7.688,7.688,0,0,0,.7-1.464,6.551,6.551,0,0,1,.574-1.23c.847-1.29,2.544-1.716,4.26-1.958a13.493,13.493,0,0,1,2.848,2.117,7.831,7.831,0,0,0-2.655,1.2,18.213,18.213,0,0,0-4.47,5.146c-2.037,3.062-4.344,6.532-5.3,10.415-.151.615-.272,1.247-.388,1.858a11.668,11.668,0,0,1-1.493,4.512c-1.574,2.3-4.54,3.1-7.7,3.784a18.512,18.512,0,0,1-5.133.617,5.751,5.751,0,0,1-4.23-2" transform="translate(-1059.75 -373.263)" fill="#dddfe0"/>
      <path id="Path_234" data-name="Path 234" d="M1349.224,408.063a8.415,8.415,0,0,0,1.469.358,8.536,8.536,0,0,1,1.108.249,9.834,9.834,0,0,1,1.417.618c1.2.6,2.449,1.231,4.318-.13.2-.142.387-.292.578-.443a5.707,5.707,0,0,1,1.638-1.021,5.814,5.814,0,0,1,1.029-.2c.28-.038.569-.077.862-.144a6.107,6.107,0,0,0,2.519-1.554,10.545,10.545,0,0,1,.964-.78,26.522,26.522,0,0,1,2.65-1.508c.323-.168.646-.335.966-.507,1.086-.583,2.252-1.257,3.438-2.016a72.567,72.567,0,0,1,2.315,17.974c.005,1.881-.079,4.024-1.152,5.646a10.826,10.826,0,0,1-2.044,2.109,16.654,16.654,0,0,0-1.706,1.624,16.487,16.487,0,0,0-2.8,5.569c-.228.646-.463,1.315-.718,1.949-.694,1.724-2.264,4.674-4.987,5.07a9.978,9.978,0,0,0-4.435-1.3c-.591-.051-1.19-.078-1.768-.1a11.869,11.869,0,0,1-6.307-1.481,15.272,15.272,0,0,0-2.715-1.115,5.706,5.706,0,0,0-2.514-.133l-4.084-29.627,8.128-.869a2.968,2.968,0,0,0,1.828,1.773" transform="translate(-994.698 -297.815)" fill="#dddfe0"/>
      <path id="Path_235" data-name="Path 235" d="M1267.715,259.75a7.089,7.089,0,0,0,4.036,1.658c.117,0,.236-.009.356-.016a1.463,1.463,0,0,1,.784.069c.157.116.169.434.17.906a5.361,5.361,0,0,0,.038.765,4.718,4.718,0,0,0,1.472,2.438,3.2,3.2,0,0,1,1.12,1.832,3.057,3.057,0,0,1-.655,1.561,5.306,5.306,0,0,0-.819,1.74,5.037,5.037,0,0,0-.03,1.472c.083,1.035-.157,2.348-1.414,2.519a2.521,2.521,0,0,0-1.939,2.863,2.752,2.752,0,0,0,1.491,2.327,2.175,2.175,0,0,0,2.8-.851,2.925,2.925,0,0,0,.259-1.135c.008-.092.015-.184.026-.274.037-.305.137-.48.219-.518a1.313,1.313,0,0,1,.5-.007,1.953,1.953,0,0,0,1.276-.2,1.831,1.831,0,0,0,.721-1.63,2.634,2.634,0,0,1,.064-.541.759.759,0,0,1,.388-.432,1.572,1.572,0,0,1,1.152-.1c1.065.329,1.392.942,1.684,2.109.285,1.137.686,2.262,1.073,3.351.185.518.375,1.054.548,1.576.5,1.511.934,3.088.3,4.305a6.25,6.25,0,0,1-.709.994,3.138,3.138,0,0,0-.9,2.628,2.968,2.968,0,0,1-.443,2.365,3.856,3.856,0,0,1-1.447.722c-.506.2-1.033.554-1.1,1.094a3.084,3.084,0,0,0,.321,1.24c.212.7-.381,1.379-.749,1.924a5.049,5.049,0,0,0-.661,1.217l-24.6,2.629a15.049,15.049,0,0,0,.539-17.881l-.161-.231a3.656,3.656,0,0,1-.822-1.687,3.575,3.575,0,0,1,.253-1.25,4.21,4.21,0,0,0,.29-1.906,4.331,4.331,0,0,0-.506-1.356,2.6,2.6,0,0,1-.381-1.071,2.754,2.754,0,0,1,.946-1.572c.115-.127.23-.254.339-.38a7.539,7.539,0,0,0,1.713-3.7,7.293,7.293,0,0,0,.072-1.005,2.884,2.884,0,0,1,.255-1.417,1.358,1.358,0,0,1,.691-.607.267.267,0,0,1,.062.081,1.451,1.451,0,0,1-.023.466,1.647,1.647,0,0,0,.551,1.752,1.3,1.3,0,0,0,1.049.194,1.7,1.7,0,0,0,1.078-.8,3.1,3.1,0,0,0,.319-1.46l.009-.177a6.459,6.459,0,0,1,1.521-3.6c.316-.455.643-.925.958-1.469a10.142,10.142,0,0,0,.541-1.134c.458-1.077.735-1.727,2.028-1.8a5.769,5.769,0,0,1,3.36,1.419" transform="translate(-930.066 -191.863)" fill="#dddfe0"/>
      <path id="Path_236" data-name="Path 236" d="M1153.825,172.038a5.367,5.367,0,0,1,2.771-1.555,7.645,7.645,0,0,0,2.863-.945,10.287,10.287,0,0,0,3.856-2.987c.4-.621.685-1.3,1.072-1.93a5.7,5.7,0,0,1,1.487-1.612.487.487,0,0,1,.545-.03c.23.168.215.566.469.695.17.087.374.005.564,0,.732-.014.906,1.046.49,1.5-.56.608-1.57-.009-2.245.237a1.992,1.992,0,0,0-.97,1.221l-.819,1.938c-.766,1.813.869,2.676,2.32,1.661l.126-.087a3.784,3.784,0,0,1,5.707,2.034,1.07,1.07,0,0,0,.063.65,1.312,1.312,0,0,0,.877.75,2.263,2.263,0,0,0,1.37-.184,1.468,1.468,0,0,1,.627-.155c.164.031.334.227.531.454a3.179,3.179,0,0,0,.764.7,2.458,2.458,0,0,0,2.65-.283,6.284,6.284,0,0,0,1.157-1.194c.11-.136.22-.273.334-.4a6.277,6.277,0,0,1,3.935-2.047c1.5-.186,3.018.791,4.445.283a1.71,1.71,0,0,0,1.153-1.268,2.276,2.276,0,0,1,.132-.76c.124-.227.51-.323.622-.089a1.346,1.346,0,0,1,.3,1.464c-.187.44-.615.789-.639,1.267a1.091,1.091,0,0,0,.659.966,4.218,4.218,0,0,0,3.715-.521c.955-.739.073-1.844.833-2.611a.9.9,0,0,1,1.389.2c.2.542-.281,1.031.363,1.514.545.408,1.36.483.9,1.358-.271.512-.926.774-1.092,1.329a1.169,1.169,0,0,0,.808,1.323c.55.165.978-.261,1.548-.055a.669.669,0,0,1,.012,1.306,4.832,4.832,0,0,1-2.411.175c-.434-.139-.822-.4-1.265-.509a.992.992,0,0,0-1.168.448c-.178.451.13,1.094-.261,1.38s-.858-.165-1.114-.556a7.155,7.155,0,0,0-1.423-2.031c-1.481-.97-5.683-.962-6.544.878a3.24,3.24,0,0,0-.22.739,1.4,1.4,0,0,1-.172.527,1.112,1.112,0,0,1-.964.179c-.137-.019-.273-.044-.41-.069a3.991,3.991,0,0,0-1.473-.076,3.714,3.714,0,0,0-2,1.333l-.069.076a3.368,3.368,0,0,1-1.228,1.013.925.925,0,0,1-.688-.046.3.3,0,0,1-.168-.176,1.8,1.8,0,0,1-.033-.181,1.22,1.22,0,0,0-.708-1.086c-.432-.163-1.053-.046-1.5.77-.7,1.27-1.411,2.536-2.066,3.828-.316.624-.774,1.933-1.587,1.676-.18-.057-1.049-1.775-1.336-2.061a7.637,7.637,0,0,0-2.226-1.549,18.442,18.442,0,0,0-6.475-1.228c-.385-.026-.769-.052-1.151-.082-2.293-.181-4.874-.586-6.639-2.211a5.886,5.886,0,0,1-1.875-4.239,7.739,7.739,0,0,0,1.488-1.046" transform="translate(-855.861 -120.994)" fill="#dddfe0"/>
      <path id="Path_237" data-name="Path 237" d="M1095.427,213.95c.021-.036.041-.073.062-.113a3.221,3.221,0,0,1,.891-1.211.988.988,0,0,1,1.354.132,1.118,1.118,0,0,1-.224,1.262,11.664,11.664,0,0,0-.93,1.007.95.95,0,0,0,.073,1.244,1.482,1.482,0,0,0,1.12.075,4.905,4.905,0,0,1,2.449.3c.146.052,1.815.719,1.79.36a7.191,7.191,0,0,0,2.272,4.742c2.066,1.9,5.045,2.36,7.409,2.547.387.031.776.057,1.166.083a17.484,17.484,0,0,1,6.031,1.116c1.959.888,3.784,3.021,3.308,5.224l.014,0c-.755,1.433-1.528,2.9-2.3,4.336a2.076,2.076,0,0,0-.328,1.319,1.412,1.412,0,0,0,.834,1.052c1.212.563,2.12-.3,2.574-1.385a9.5,9.5,0,0,1,.971-2.195,1.317,1.317,0,0,1,.557-.459.66.66,0,0,1,.685.109.717.717,0,0,1,.135.71,2.555,2.555,0,0,1-.363.664,18.94,18.94,0,0,0-2.195,5.959l-.136.573a7.81,7.81,0,0,0-.286,2.8,8.3,8.3,0,0,0,.182.9,4.324,4.324,0,0,1,.175,1.147,4.533,4.533,0,0,1-.826,1.989,3.926,3.926,0,0,0,.114,5.353,4.842,4.842,0,0,1,.867,1.65,4.686,4.686,0,0,1-.353,2.259c-.046.144-.091.287-.135.43a4.863,4.863,0,0,0-.188,2.6l-17.493,1.688a8.523,8.523,0,0,0-.939-1.286,17.234,17.234,0,0,0-2.668-2.279c-1.475-1.1-2.868-2.129-3.4-3.69a8.593,8.593,0,0,1-.3-2.725,11.548,11.548,0,0,0-.225-2.646c-.73-3.036-3.395-4.7-5.972-6.3a23.557,23.557,0,0,1-3.7-2.645,12.466,12.466,0,0,1-3.471-9.413,5.772,5.772,0,0,1,.988-2.958c.227-.407.463-.828.7-1.328a28.932,28.932,0,0,0,1.653-4.623c.336-1.236.289-2.677,1.14-3.733a22.136,22.136,0,0,1,2.578-2.81,13.188,13.188,0,0,1,2.815-.763c.778-.244,1.12-.34,1.538-1.073" transform="translate(-805.118 -157.769)" fill="#dddfe0"/>
      <path id="Path_238" data-name="Path 238" d="M954.411,126.6a20.363,20.363,0,0,0,2.221-.1,1.2,1.2,0,0,0,.794-.289c.392-.437-.025-1.141.117-1.71a1.121,1.121,0,0,1,1.068-.767,2.143,2.143,0,0,1,1.3.484c2.205,1.629,2.12,5.522,5.407,5.757a5.306,5.306,0,0,0,1.432-.145,4.558,4.558,0,0,1,1.056-.127,1.017,1.017,0,0,1,.762.456c.042.081.026.1.013.126l-.166.259.1.292a1.264,1.264,0,0,0,.961.841,2.2,2.2,0,0,0,1.943-.645,6.488,6.488,0,0,0,.473-.591,1.957,1.957,0,0,1,.78-.761,2.072,2.072,0,0,1,1.186.166,6.05,6.05,0,0,1,3.264,1.855,5.727,5.727,0,0,1,.36.632,6.262,6.262,0,0,0,.5.85,2.205,2.205,0,0,0,2.093.987c.82-.149.642-.614,1.048-1.142a.752.752,0,0,1,.737-.3c.425.1.452.749.619,1.085a3.784,3.784,0,0,0,1.248,1.637c1.126.73,2.676.429,4.254-.826.177-.14.358-.314.55-.5.474-.454,1.125-1.074,1.527-.924.192.072.192.072.227.392a1.858,1.858,0,0,0,.342,1c1.484,1.929,4.409-.638,5.833.922,1.2,1.315-.5,1.8-1.405,2.091l-.363.116c-.249.081-.5.159-.752.237a12.5,12.5,0,0,0-4.2,1.9,11.933,11.933,0,0,0-2.43,2.931,16.4,16.4,0,0,1-1.405,1.922,8.031,8.031,0,0,1-3.1,2.132c-2,.77-2.175,1.736-1.965,2.411a1.67,1.67,0,0,0,1.337,1.076c-.624.654-1.183,1.333-1.711,1.989a5.3,5.3,0,0,0-1.1,2.738c-.026.139-.053.285-.083.438a23.75,23.75,0,0,1-1.771,5.442c-.213.457-.436.857-.652,1.244a6.971,6.971,0,0,0-1.15,3.557,13.742,13.742,0,0,0,3.875,10.377,24.48,24.48,0,0,0,3.907,2.8c2.466,1.536,4.795,2.986,5.4,5.51a10.436,10.436,0,0,1,.189,2.354,13.211,13.211,0,0,0,.15,2.27l-39.414-.537a66.741,66.741,0,0,0-1.782-26.678c-.621-2.264-.27-4.586.1-7.044a18.943,18.943,0,0,0,.146-7.322,13.217,13.217,0,0,0-1.695-3.657,13.08,13.08,0,0,1-1.444-2.94,7.251,7.251,0,0,1-.05-3.421c.071-.485.145-.987.191-1.549a66.546,66.546,0,0,0,.075-7.029c-.022-.876-.04-1.773-.048-2.66q1.13.047,2.255.091c2.261,0,4.575.289,6.848.3" transform="translate(-701.801 -91.893)" fill="#dddfe0"/>
      <path id="Path_239" data-name="Path 239" d="M772.609,111.175c.008.918.027,1.844.049,2.747a65.6,65.6,0,0,1-.071,6.892c-.043.521-.113,1-.181,1.467a8.484,8.484,0,0,0,.089,3.971,14.264,14.264,0,0,0,1.573,3.236,12.069,12.069,0,0,1,1.549,3.3,17.718,17.718,0,0,1-.167,6.829,20.361,20.361,0,0,0-.262,6.721l-53.3-2.7,3.481-36.091c9.267.994,18.571,1.831,27.73,2.49,6.842.492,13.26.867,19.515,1.142" transform="translate(-536.156 -79.873)" fill="#dddfe0"/>
      <path id="Path_240" data-name="Path 240" d="M461.554,71.971q2.058.235,4.121.459l-4.593,47.621-54.355-7.175-.646,3.8c-1.806-1.153-4.8-.884-6.576-.326l-.584.187c-1.828.59-3.719,1.2-5.233.421-2-1.029-2.219-3.988-2.22-5.212,0-.4.01-.814.021-1.225.074-2.847.159-6.073-3.522-7.272-.272-.089-.549-.165-.816-.24a5.045,5.045,0,0,1-2.086-.914c-1.549-1.408-.405-4.244-.017-5.079,2.9-6.257.813-8.77-2.649-12.932-.315-.379-.644-.774-.985-1.19a10.718,10.718,0,0,1-2.15-7.885c.252-2.012,3.192-13.441,3.907-16.2,12.247,2.79,25.019,5.307,38.066,7.5,13.108,2.2,26.672,4.108,40.315,5.664" transform="translate(-281.628 -43.676)" fill="#dddfe0"/>
      <path id="Path_241" data-name="Path 241" d="M93.436,28.766c.111-.5.206-1.022.279-1.561.371-2.711.351-5.787,1.415-8.336.1-.246.208-.493.314-.742.915-2.141,1.952-4.568,1.32-6.985a10.722,10.722,0,0,0-.73-1.843,8.693,8.693,0,0,1-.683-1.765,2.493,2.493,0,0,1,.3-1.828,1.119,1.119,0,0,1,.755-.516,3.137,3.137,0,0,1,1.981.794l.189.126c2,1.32,5.214,1.659,6.847,3.34a4.778,4.778,0,0,1,1.111,3.413c-.211,1.882-1.754,1.806-2.426,3.005a2.6,2.6,0,0,0,1.477,3.452,4.149,4.149,0,0,0,3.973-.855,6.05,6.05,0,0,0,2.211-4.8,7.957,7.957,0,0,1,.012-2.34A17.187,17.187,0,0,1,112.92,9.18c.165-.378-.81-9.424-.065-9.179,13.054,4.3,27.024,8.242,41.54,11.735L149.458,31.4c-.316,1.26-.66,2.545-.993,3.787-.672,2.509-1.366,5.1-1.887,7.685a18.692,18.692,0,0,0,.151,6.137c.086.636.169,1.261.231,1.872l-.734-.217c-6.7-1.99-14.3-4.246-21.058-2.972-.434.082-.87.175-1.309.269-1.941.416-3.775.81-5.47.232a10.429,10.429,0,0,1-3.014-1.914A9.71,9.71,0,0,0,111.349,44a10.922,10.922,0,0,0-2.792-.081c-1.428.081-2.662.15-3.526-.616a4.849,4.849,0,0,1-1.147-2.794,12.068,12.068,0,0,0-.492-1.919,7.74,7.74,0,0,0-5.161-4.382,23.076,23.076,0,0,0-6.334-.611,35.243,35.243,0,0,0,1.538-4.828" transform="translate(-68.254 0.004)" fill="#dddfe0"/>
      <path id="Path_242" data-name="Path 242" d="M29.185,186.9c.6-1.923,1.239-2.965.323-5.12-.642-1.51.356-2.385.768-3.6.429-1.268.145-2.438.417-3.734a8.377,8.377,0,0,1,1.809-3.149,56.6,56.6,0,0,0,5.518-8.545,100.922,100.922,0,0,0,4.956-11.357,23.616,23.616,0,0,1,6.451.553,6.461,6.461,0,0,1,4.328,3.6,10.99,10.99,0,0,1,.434,1.716,5.843,5.843,0,0,0,1.555,3.506c1.261,1.119,2.883,1.027,4.452.939a9.975,9.975,0,0,1,2.462.057,8.634,8.634,0,0,1,3.482,2.024,11.54,11.54,0,0,0,3.4,2.128c2.032.693,4.128.243,6.155-.192.428-.092.854-.183,1.277-.263,6.454-1.216,13.892.992,20.453,2.94l1.2.354a8.434,8.434,0,0,1-.31,2.76,10.1,10.1,0,0,1-3.046,4.207,17.972,17.972,0,0,0-2.37,2.637,9.628,9.628,0,0,0-1.512,4.8c-.051.426-.1.867-.175,1.329-.784,5.091-1.932,10.416-3.043,15.566-.5,2.3-1.006,4.67-1.474,6.974C72.3,202.8,34.211,191.512,29.46,190.1a7.86,7.86,0,0,0-.191-1.422,3.745,3.745,0,0,1-.084-1.785" transform="translate(-21.616 -112.436)" fill="#dddfe0"/>
      <path id="Path_243" data-name="Path 243" d="M55.915,426.164a3.744,3.744,0,0,0-.9-1.38c-2.105-1.909-6.256-1.48-8.866-2.1-2.745-.649-7.262-.8-9.644-2.267-1.905-1.172-2.861-4.667-3.026-6.736-.108-1.359-.051-2.932-1.083-3.822-.725-.625-1.781-.7-2.593-1.2-3.6-2.245.922-8.3-5.351-6.522a2.934,2.934,0,0,1-2.2.055c-.514-.326-.657-1.2-.823-2.2-.285-1.73-.676-4.1-3.61-4.715-5.732-1.2-4.868-3.475-5.452-8.71-.445-3.995-1.808-1.52-4.637-2.8-1.187-.538-1.158-2.233-.79-3.484.687-2.339.375-3.13-.44-5.133-.885-2.173-1.847-2.828.328-4.631,5.1-4.228-1.962-4.988-2.009-9.045,0-.318.033-1.378.66-1.669A2.351,2.351,0,0,1,6,359.665a3.969,3.969,0,0,0,.664-.171,2.294,2.294,0,0,0,1.363-2.781c-.726-2.229-4.123-.227-4.815-1.994-.287-.732.826-2.284.975-3.031a4.675,4.675,0,0,0-.748-4.01,9.993,9.993,0,0,1-1.585-11.144c.109-.21.226-.421.344-.633a5.372,5.372,0,0,0,1-3.724A5.275,5.275,0,0,0,1.5,329.653a5.3,5.3,0,0,1-1.3-1.664c-1.024-2.634,1.949-6.037,3.572-7.785a7.736,7.736,0,0,0,1.762-2.478c3.27.969,18.5,5.48,33.112,9.8l-8.172,33.036,33.427,52.612a4.1,4.1,0,0,0-1.061,1.569c-.662,1.879.551,3.731,1.522,4.961l.054.069c.931,1.179,1.894,2.4,1.755,3.7s-1.327,2.27-2.476,3.22l-.2.163c-1.445,1.2-1.754,3.7-3.886,3.886-2.82.246-2.867-2.544-3.705-4.574" transform="translate(0 -235.98)" fill="#dddfe0"/>
      <path id="Path_244" data-name="Path 244" d="M274.16,666.957a5.058,5.058,0,0,1,1.979-2.831l.193-.16c1.285-1.062,2.742-2.267,2.936-4.074s-.984-3.312-2.024-4.629l-.054-.069c-1.243-1.575-1.662-2.763-1.319-3.737a4.525,4.525,0,0,1,1.517-1.755,6.562,6.562,0,0,0,1.748-1.92,6.352,6.352,0,0,0,.2-4.179,6.413,6.413,0,0,1-.061-3.133,4.36,4.36,0,0,1,3.032-2.211,2.5,2.5,0,0,1,2.309.324l.863.841,1.914-10.414,41.465,8.176-8.2,49.652L298.5,681.426a205.482,205.482,0,0,0-24.336-14.469" transform="translate(-203.623 -467.177)" fill="#dddfe0"/>
      <path id="Path_245" data-name="Path 245" d="M493.541,724.584c-3.56-2.076-7.9-1.989-12.094-1.906-.783.016-1.593.032-2.368.032h-.409l-2.025,4.324-3.494-.853,8.216-49.767c4.477.463,29.828,3.076,49.192,4.967L526.3,733.228l-18.775-1.517-3.668,2.844c-2.278-3.112-5.722-7.29-10.318-9.97" transform="translate(-351.417 -502.384)" fill="#dddfe0"/>
      <path id="Path_246" data-name="Path 246" d="M713.427,811.483a20.511,20.511,0,0,0-5.8,1.7c-.667.268-1.3.521-1.91.741-2.442.872-2-1.279-3.309-2.145a1.657,1.657,0,0,0-2.357.933,4.893,4.893,0,0,0-.266,2.436c.019.283.036.55.034.809a6.1,6.1,0,0,1-2.839,4.818,9.533,9.533,0,0,1-3.968,1.456,8.408,8.408,0,0,1-1,.06c-1.153.025-2.588.056-3.262,1.5-.189.406-.475,1.019-.763,1.02a1.26,1.26,0,0,1-.479-.205,2.66,2.66,0,0,0-.859-.356,2.057,2.057,0,0,0-1.955.875,4.8,4.8,0,0,0-.633,1.342l-.072.206a5.368,5.368,0,0,1-1.247,2.128,2.638,2.638,0,0,1-2.042.8c-.133-.014-.274-.036-.417-.059-2.716-.423-1.843,1.725-2.243,3.456-.344,1.489-1.095,1.169-1.8,2.146-.675.939-.648,2.248-.891,3.373a21.373,21.373,0,0,0-.393,2.19,4.97,4.97,0,0,0,.515,2.988c.1.176.205.335.308.49a4.286,4.286,0,0,1,.324.537,1.571,1.571,0,0,1-.044,1.273,3.828,3.828,0,0,0-.222,1.346,4.051,4.051,0,0,0,1.5,2.524c.127.126.251.25.364.371a2.129,2.129,0,0,1,.606,1.58.411.411,0,0,1-.242.328c-.345.166-.724-.062-1.449-.587a5.234,5.234,0,0,0-1.592-.885,2.787,2.787,0,0,0-.759-.1,6.207,6.207,0,0,0-1.6.279,3.336,3.336,0,0,1-1.682.181c-.6-.17-.992-.737-1.449-1.393a3.962,3.962,0,0,0-4.4-2.113,4,4,0,0,1-2.021-.215,3.786,3.786,0,0,1-1.369-1.886c-.1-.212-.2-.422-.3-.625a17.142,17.142,0,0,0-1.649-2.476c-.441-.585-.858-1.138-1.218-1.73-1.605-2.637-2.126-5.782-3.544-8.479-1.852-3.521-4.283-6.578-5.861-10.294-.214-.5-.421-1.014-.627-1.523a28.74,28.74,0,0,0-2.656-5.416,13.573,13.573,0,0,0-5.735-4.963,5.154,5.154,0,0,0-1.643-.24,3.368,3.368,0,0,1-1.239-.181,2.125,2.125,0,0,1-.8-.959,3.01,3.01,0,0,0-1.3-1.422,2.364,2.364,0,0,0-2.5.512,3.575,3.575,0,0,1-.645.391,11.759,11.759,0,0,1-1.626.46,6.357,6.357,0,0,0-3.654,1.756,7.8,7.8,0,0,0-1.241,2.3c-.47,1.2-.842,2.149-2.448,2.645a4.517,4.517,0,0,1-3.926-.673,9.049,9.049,0,0,1-1.808-2.063,12.094,12.094,0,0,0-1.685-2.02,12.384,12.384,0,0,0-1.9-1.329,9.165,9.165,0,0,1-1.971-1.443c-1.091-1.161-1.166-2.473-1.252-3.993a10,10,0,0,0-2.711-6.9l-.013-.019,3.305-2.562,19.558,1.58,3.916-47.7,23.944,2.562v17.584l.311.188a80.2,80.2,0,0,0,26.57,10.168c3.385.643,8.264,1.178,11.538-1.594a15.488,15.488,0,0,0,1.425-1.438,6.584,6.584,0,0,1,2.609-2.08c2.2-.713,5.774,1.5,8.648,3.28a34.747,34.747,0,0,0,3.344,1.918c.787,1.44-.228,3.4-1.127,5.129l-.081.156c-1.548,2.989-.378,5.654.753,8.23.251.571.51,1.162.735,1.746,2.02,5.256,4.766,12.408,2.725,17.65-.293-.007-.59-.03-.9-.054a10.248,10.248,0,0,0-1.634-.042" transform="translate(-451.414 -555.611)" fill="#dddfe0"/>
      <path id="Path_247" data-name="Path 247" d="M1061.625,910.064a3.351,3.351,0,0,1,1,.153,3.151,3.151,0,0,1,1,.812c.072.076.144.151.217.225a2.481,2.481,0,0,0,1.816.939c.64-.078,1.185-1.027,1.844-.347a.8.8,0,0,0,.253.226c.251.1,1.416-1.449,1.288-.149-.043.437-.981,1.091-1.364,1.211-.752.236-1.2.255-1.484.991a1.135,1.135,0,0,0,.45,1.525,2.8,2.8,0,0,0,1.606.153,2.382,2.382,0,0,1,1.588.236c.45.311.588,1.091.122,1.377-.4.247-.913-.019-1.32-.26s-.968-.447-1.311-.122c-.411.389-.131,1.223-.6,1.535-.412.272-.937-.149-1.187-.576s-.507-.959-1-1.016c-.617-.072-1,.666-1.075,1.282s-.1,1.344-.611,1.694a1.107,1.107,0,0,1-1.392-.232c-.815-.913-.459-2.53-2.158-2.741-.961-.119-1.8.672-2.512,1.425a2.492,2.492,0,0,1-1.276.859c-.877.133-1.671-.863-1.894-1.171-.135-.186-.263-.38-.391-.573a5.8,5.8,0,0,0-1.713-1.891,5.978,5.978,0,0,0-1.515-.6,7.507,7.507,0,0,1-.891-.3,2.944,2.944,0,0,1-1.166-1.106,3.2,3.2,0,0,0-3-1.641,3.783,3.783,0,0,0-2.457,1.187,1.859,1.859,0,0,0,.106,1.935,1.493,1.493,0,0,1,.22.624c-.006.208-.31.441-.625.48a2.711,2.711,0,0,1-1.373-.331l-.258-.119a5.693,5.693,0,0,0-1.574-.551,6.1,6.1,0,0,0-1.24-.022,2.527,2.527,0,0,1-1.392-.157,2.394,2.394,0,0,1-.67-.806,4.114,4.114,0,0,0-.852-1.057,3.166,3.166,0,0,0-2.086-.62c1.874-5.632-.87-12.778-2.9-18.073-.235-.612-.5-1.217-.758-1.8a12.188,12.188,0,0,1-1.388-4.705h25.3a17.008,17.008,0,0,0,.3,1.887c.237,1.1.514,2.1.781,3.07.9,3.262,1.607,5.838.147,9.305-.946,2.245-1.056,3.688-.357,4.679a3.792,3.792,0,0,0,2.8,1.28,5,5,0,0,1,1.93.288c.5.272.848.887,1.3,1.172a3.5,3.5,0,0,0,1.731.42" transform="translate(-763.289 -659.504)" fill="#dddfe0"/>
      <path id="Path_248" data-name="Path 248" d="M1166.485,818.711c-.717.682-.408,2.023-.062,3.226.026.092.049.17.065.232a.776.776,0,0,1-.086.584c-.033.044-.05.041-.057.042-.111,0-.312-.218-.474-.392a4.465,4.465,0,0,0-.408-.406c-1.649-1.393-3.8.374-5.711-.129a4.252,4.252,0,0,1-.765-.323,3.794,3.794,0,0,0-1.522-.492,2.8,2.8,0,0,0-2.268,1.131c-.4.5-.575.746-.324,1.416a2.632,2.632,0,0,1,.263,1c-.014.347-.279.716-.625.694a.8.8,0,0,1-.586-.462,2.757,2.757,0,0,0-.4-.662c-.519-.508-1.111-.105-1.7-.132a2,2,0,0,1-1.287-.515c-1-.734-1.909-1.788-3.288-1.548a2.137,2.137,0,0,0-1.465,1.047c-1.666.072-3.7.026-4.272-.787-.4-.572-.242-1.7.491-3.439,1.633-3.878.833-6.782-.092-10.146-.262-.954-.534-1.94-.764-3-1.044-4.823.188-10.212,3.879-16.958.747-1.365,1.554-2.739,2.336-4.069.851-1.449,1.714-2.916,2.525-4.416,1.605-.166,8.7-.9,17.555-1.8-.271,13.276-.184,26.723.256,40a1.339,1.339,0,0,0-1.206.3" transform="translate(-847.278 -578.138)" fill="#dddfe0"/>
      <path id="Path_249" data-name="Path 249" d="M1273.086,815.007a3.949,3.949,0,0,1-1.25.5,4.413,4.413,0,0,1-2.073-.49,4.05,4.05,0,0,0-3.3-.329,4.577,4.577,0,0,0-1.746,1.792c-.574.869-.964,1.4-1.684,1.4-3.164-.009-2.682-4.609-2.739-6.544q-.156-5.287-.237-10.575-.162-10.591-.026-21.184c.006-.484-.014-5.686.1-5.7,6.535-.661,13.9-1.4,20.7-2.064.7,7.922,1.968,13.837,4.1,19.108.36.89.754,1.78,1.135,2.639a47.643,47.643,0,0,1,1.9,4.742c1.292,4.045,1.466,8.388,1.634,12.59a5.017,5.017,0,0,0,.077.694c-6.745-.165-14.494-.27-15.191.1-.861.451-.795,1.856-.6,2.936-.28.115-.543.251-.8.386" transform="translate(-935.802 -573.24)" fill="#dddfe0"/>
      <path id="Path_250" data-name="Path 250" d="M1390.24,946.933a15.97,15.97,0,0,1,1.038,2.062c.792,1.965,1.815,3.677,2.706,5.578,1,2.127,3.753,2.758,4.024,5.374.194,1.874-1.154,3.7-.774,5.549.307,1.493,1.642,2.517,2.882,3.4,1.083.774,2.66,1.534,3.424,2.636a30.5,30.5,0,0,1,1.934,3.474c2.864,5.635,1.951,11,.985,16.689a4.892,4.892,0,0,1-3.725,3.984c-1.59.306-2.406-1.271-3.233-3.2l-.075-.174a5.137,5.137,0,0,0-3.8-3.192c-.279-.041-.559-.053-.829-.066a2.273,2.273,0,0,1-1.366-.31,2.035,2.035,0,0,1-.414-1.284,4.415,4.415,0,0,0-.394-1.565,4.307,4.307,0,0,0-1.583-1.5,3.455,3.455,0,0,1-1.138-.991,3.251,3.251,0,0,1-.259-1.5,3.761,3.761,0,0,0-1.207-2.7,1.556,1.556,0,0,0-1.356-.374c-.792.214-.539.8-1.1,1.229a.349.349,0,0,1-.295.039,1.037,1.037,0,0,1-.635-.5,3.746,3.746,0,0,1-.289-1.269c-.028-.241-.057-.49-.1-.742a4.9,4.9,0,0,0-1.5-2.494,2.711,2.711,0,0,1-.989-.88c-.2-.4-.022-1.018.424-1.049.5-.035.869.662,1.354.538.305-.078.436-.443.441-.758.038-2.006-1.854-1.7-3.119-2.3-1.35-.635-1.672-2.466-1.4-3.9a15.575,15.575,0,0,1,.714-2.353,15.732,15.732,0,0,0,.8-2.723c.6-3.556-1.834-4.747-3.979-5.8-1.467-.719-2.984-1.462-3.727-2.922-.054-.107-.106-.216-.159-.327a3.426,3.426,0,0,0-1.237-1.621,3.52,3.52,0,0,0-1.629-.4,3.708,3.708,0,0,1-.884-.134c-.91-.311-1.4-1.366-2.058-2a3.971,3.971,0,0,0-2.319-1.108A7.212,7.212,0,0,0,1360.6,949c-.379.275-.75.567-1.109.848a13.455,13.455,0,0,1-2.865,1.886,3.9,3.9,0,0,1-4.029-.374,2.827,2.827,0,0,1-1.248-1.791,7.689,7.689,0,0,0-.6-1.434,3.122,3.122,0,0,0-2.425-1.31,4.849,4.849,0,0,1-.952-.236,7.89,7.89,0,0,1-.888-.466,4.249,4.249,0,0,0-2.363-.768,3.982,3.982,0,0,1-.038-1.5c1.275-.2,9.648-.079,15.049.055a3.072,3.072,0,0,0,1.977,1.382,9.239,9.239,0,0,0,4.274-.332l.083-.02c4.261-1.013,8.745-1.724,12.675-.079.323.135.646.285.987.444a8.8,8.8,0,0,0,3.6,1.082,3.953,3.953,0,0,0,1.049-.138,6.651,6.651,0,0,0,2.068-1.116c.241-.171.469-.332.7-.478,1.333-.832,2.031-.531,2.778.739.308.522.619,1.026.917,1.538" transform="translate(-998.232 -700.939)" fill="#dddfe0"/>
      <path id="Path_251" data-name="Path 251" d="M1396.063,799.777a11.808,11.808,0,0,0,1.4,3.359,4.537,4.537,0,0,0-1.828.69c-.265.166-.519.345-.765.519a5.6,5.6,0,0,1-1.665.926c-1.194.328-2.442-.254-3.764-.869-.338-.157-.687-.32-1.033-.464-4.27-1.788-9-1.049-13.469.015l-.083.02a8.316,8.316,0,0,1-3.686.331,2.08,2.08,0,0,1-1.544-2.174c-.172-4.286-.349-8.719-1.694-12.929a48.651,48.651,0,0,0-1.951-4.872c-.377-.85-.766-1.729-1.119-2.6-2.084-5.152-3.326-10.956-4.012-18.751,8.2-.8,15.409-1.471,19.044-1.739a8.476,8.476,0,0,0,.172,3.7c.4,1.159,3.808,4.139,8.965,8.553,2.117,1.812,4.117,3.524,4.668,4.145a25.856,25.856,0,0,1,2.412,4.5c1.3,2.771,2.228,4.653,3.091,5.518l-.029.057c-1.694,3.431-4.013,8.13-3.1,12.062" transform="translate(-1010.724 -565.384)" fill="#dddfe0"/>
      <path id="Path_252" data-name="Path 252" d="M1484.741,747.047c-2.149,1.061-3.152,3.339-4,5.581a24.761,24.761,0,0,1-3.015,5.9,15.82,15.82,0,0,1-2.364,2.674,3.94,3.94,0,0,1-1.549.774,7.378,7.378,0,0,0-1.478.61,6.546,6.546,0,0,0-2.094,2.274c-1.267,1.946-2.571,3.952-3.672,6.058a35.483,35.483,0,0,1-2.548-4.83,25.207,25.207,0,0,0-2.615-4.808c-.61-.686-2.456-2.266-4.793-4.267-3.091-2.646-8.264-7.074-8.584-7.993a7.642,7.642,0,0,1-.072-3.375c.183-.011.348-.019.49-.025,2.239-.095,4.425-1.151,6.538-2.173,2.281-1.1,4.43-2.143,6.583-2.042a27.212,27.212,0,0,1,5.748,1.115,28.037,28.037,0,0,0,9.107,1.276c1.239.018,2.521.036,3.759.166a8.722,8.722,0,0,1,5.579,2.7,6.31,6.31,0,0,0-1.023.391" transform="translate(-1075.31 -550.646)" fill="#dbb383"/>
      <path id="Path_253" data-name="Path 253" d="M1482.825,647.938c-1.152-.085-2.292.12-2.942-1.146a1.68,1.68,0,0,1,.945-2.4c.356-.174.44-.234.448-.326a.975.975,0,0,0-.065-.374c-3.005.385-18.912,2.445-24.949,3.758-2.528.55-9.922,1.879-18.906,3.43a15.151,15.151,0,0,1-.61,1.485c-.857,1.8-1.873,2.9-3.019,3.286-1.65.55-4.081,2.926-5.69,4.5-.525.513-.979.957-1.314,1.248a22.36,22.36,0,0,1-4.189,2.2,26.878,26.878,0,0,0-5.022,2.67c-1.035.911-1.154,2.835-1.133,3.906,4.808-.442,8.434-.747,9.9-.809,1.973-.083,3.945-1.037,6.033-2.046,2.326-1.124,4.729-2.288,7.2-2.169a28.557,28.557,0,0,1,6.02,1.158,26.85,26.85,0,0,0,8.792,1.232c1.268.018,2.578.037,3.874.172a9.976,9.976,0,0,1,6.876,3.653l.151-.029a6.8,6.8,0,0,0,2.653-.866c1.367-.947,1.728-2.831,1.981-4.68l.03-.218,4.05-3.969a7.567,7.567,0,0,1,2.351-1.753,7.721,7.721,0,0,1,1.935-.439c.892-.122,2.071,0,2.669-.81.815-1.109-.067-1.851-1.025-2.1-1.222-.314-1.547-.863-1.64-2.171a3.329,3.329,0,0,1,.462-2.043c.879-1.378,2.15-1.275,3.171-1.192a5.126,5.126,0,0,0,1.231.006c2.271-.375,1.869-3.007-.265-3.165" transform="translate(-1051.967 -478.077)" fill="#dbb383"/>
      <path id="Path_254" data-name="Path 254" d="M1236.144,693.426a26.5,26.5,0,0,1,5.337-2.874,23.72,23.72,0,0,0,3.882-2.007c.307-.266.748-.7,1.259-1.2,1.794-1.754,4.251-4.155,6.182-4.8,1.127-.376,2.019-1.958,2.568-3.3-15.922,2.739-36.133,6.057-43.375,7.01-11.137,1.466-20.139,2.473-21.33,2.6a2.961,2.961,0,0,0-.8.99l-.022.035a19.414,19.414,0,0,0-1.924,5.338c-.134.527-.273,1.073-.421,1.6a35.638,35.638,0,0,1-2.638,6.54c6.034-.623,33.572-3.456,49.715-4.958-.052-1.13.028-3.632,1.571-4.991" transform="translate(-880.015 -504.493)" fill="#dddfe0"/>
      <path id="Path_255" data-name="Path 255" d="M1470.541,534.709a1.45,1.45,0,0,1-.217.545c-.248.457-.6.728-.3,1.287a1.54,1.54,0,0,0,.839.653,6.051,6.051,0,0,1,2.727,1.545c.684.947-.308,1.839.055,2.749.4,1.013,2.967.828,2.458,2.325-.468,1.377-2.4-.426-2.418,1.136-.012,1,1.278,1.3,1.421,2.252a6.151,6.151,0,0,0,.153,1.141c.454,1.293,1.5.284,2.249.452.613.137.848.952,1.015,1.476.091.286.526,3.242.785,3.209-3.675.472-18.844,2.454-24.744,3.736-2.551.555-10.063,1.9-19.162,3.474l-.4-.1c-.014.056-.031.118-.05.182-4.5.774-9.358,1.6-14.194,2.407l8.58-10.543a8.442,8.442,0,0,0,2.36.5,19.555,19.555,0,0,0,5.494-.642c3.287-.708,6.65-1.625,8.49-4.316a12.8,12.8,0,0,0,1.695-5c.113-.594.23-1.209.374-1.791.9-3.665,3.049-6.891,5.123-10.01a16.994,16.994,0,0,1,4.131-4.8,6.519,6.519,0,0,1,2.968-1.115c.042.052.088.1.129.155l.225-.178a4.081,4.081,0,0,1,2.219.522c1.3.758,2.019,2.178,2.783,3.681.243.477.493.97.763,1.439a6.728,6.728,0,0,0,3.726,3.213c.5.142.732.193.726.415" transform="translate(-1055.22 -390.25)" fill="#dddfe0"/>
      <path id="Path_256" data-name="Path 256" d="M1583.5,488.52c-.086.209-.175.418-.264.626a11.545,11.545,0,0,0-.931,4.926,5.009,5.009,0,0,1-.074,1.575,1.325,1.325,0,0,1-1.084,1.016c-.715.043-1.235-.744-1.248-1.459a7.963,7.963,0,0,1,.487-2.082,5.451,5.451,0,0,0-.24-3.393,3.433,3.433,0,0,0-.773-1.286c-.294-.251-.807-.264-.92-.712-.072-.283.7-4.2-1.143-2.709a1.946,1.946,0,0,1-.727.5.933.933,0,0,1-.99-.769,3.9,3.9,0,0,1,.055-1.38c.234-1.954-.561-7.012-3.725-5.485a1.935,1.935,0,0,0-1.045,1.283,3.657,3.657,0,0,0,.6,2.841c.153.226.32.448.481.664a3.5,3.5,0,0,1,1,2.11,2.31,2.31,0,0,1-2.033,1.938c-1.032-.049-1.955-1.428-2.412-2.222-.253-.44-.486-.9-.731-1.38-.815-1.6-1.658-3.26-3.281-4.209a5.378,5.378,0,0,0-2.653-.7,14.8,14.8,0,0,0-2.461-2.2c.916-.137,1.819-.335,2.7-.531a25.351,25.351,0,0,1,3.765-.648c.4-.028.809-.052,1.218-.075a22.489,22.489,0,0,0,5.853-.858,9.668,9.668,0,0,0,2.48-1.237l4.317,13.5,4.386-1.471a6.3,6.3,0,0,1-.608,3.833" transform="translate(-1158.189 -351.054)" fill="#dddfe0"/>
      <path id="Path_257" data-name="Path 257" d="M1645.441,395.291c.195.87,1.448,1.43,2.327,1.538q-.005.4-.01.791c-.035,2.732-.071,5.555-.25,8.31a6.553,6.553,0,0,0-2.054,2.673,7.31,7.31,0,0,0-.889,2.511,3.356,3.356,0,0,1,.037,1.09c-.088.355-.456.68-.8.552-.38-.141-.409-.668-.316-1.063s.231-.851-.018-1.171a.956.956,0,0,0-1.034-.2,6.053,6.053,0,0,1-1.062.349,1.319,1.319,0,0,1-1.39-1.04,4.045,4.045,0,0,0-.1-.712.98.98,0,0,0-1.4-.388,1.6,1.6,0,0,0-.659,1.434,4.691,4.691,0,0,0,.446,1.585,8.129,8.129,0,0,0,1.788,2.966c.234.22,2.451,2.31,2.366,2.338l-3.074,1.031-4.077-12.744a6.886,6.886,0,0,0,1.4-1.925c.075-.157.146-.321.217-.484a1.824,1.824,0,0,1,1.631-1.541,3.5,3.5,0,0,0,1.338-.545,2.765,2.765,0,0,0,.536-3.44,7.7,7.7,0,0,0-1.311-1.74c-.2-.218-.388-.423-.564-.637a4.319,4.319,0,0,1-.8-2.036,10.482,10.482,0,0,0-.344-1.338c-.741-2.143-.774-4.9.786-6.181a2.745,2.745,0,0,0,.891.42c1.291.266,5.74.468,7.554.541.08,1.39.1,2.8.116,4.185.013,1.055.026,2.143.067,3.2-1.3.5-1.458,1.181-1.348,1.67" transform="translate(-1214.549 -286.152)" fill="#dddfe0"/>
      <path id="Path_258" data-name="Path 258" d="M1691.212,333.143h-.046c-1.546,0-2.682.948-3.78,1.866a9.262,9.262,0,0,1-1.944,1.37,8.583,8.583,0,0,1-2.274.565c-.411.065-.836.131-1.257.225-1.391.311-3.076,1.146-3.409,2.683-.16.737.006,1.283.782,1.453,1.173.258.885-.584,1.372-1.088.232-.239.677,0,.746.326a1.4,1.4,0,0,1-.267.939c1.218.8,3.263-.486,3.915-1.549.258-.422.426-.9.693-1.312a1.664,1.664,0,0,1,1.164-.836c.742-.07,1.561.588,2.166.152.349-.252.4-.74.6-1.121s.816-.631,1.016-.25a1.015,1.015,0,0,0,1.052,1.594c.43-.1.982-.443,1.223-.07.165.255-.052.59-.3.768-1.728,1.246-4.461-.651-6.187.6a5.83,5.83,0,0,0-1.38,2.033,2.178,2.178,0,0,1-1.92,1.332c-.554-.064-.844-.262-1.319.108-.284.22-.261.424-.663.612-.648.3-1.468.375-1.718,1.176-.084.272-.082.568-.182.835s-.365.514-.642.446c-.379-.093-.411-.612-.37-1a6.8,6.8,0,0,0-.308-1.567,18.24,18.24,0,0,1-.038-2.247,42.181,42.181,0,0,0-.762-9.1,53.281,53.281,0,0,1-1.432-7.749c2.917-.8,8.469-2.231,12.336-2.96l4.042,11.868a5.507,5.507,0,0,0-.912-.1" transform="translate(-1244.606 -238.693)" fill="#dddfe0"/>
      <path id="Path_259" data-name="Path 259" d="M1747.052,325.666l-.053-.076c-.474-.671-1.11-1.592-2-1.562a1.434,1.434,0,0,0-1.179.793,1.955,1.955,0,0,0-.024,1.768,1.778,1.778,0,0,1,.141.617,2.52,2.52,0,0,1-1.567,1.664l-4.135-12.14a10.549,10.549,0,0,1,2.554-.2c1.709.244,4.979,5.279,6.757,8.588a1.907,1.907,0,0,1-.492.55" transform="translate(-1291.016 -235.072)" fill="#dddfe0"/>
      <path id="Path_260" data-name="Path 260" d="M1706.549,256.22c-.142.095-.284.19-.415.3a2.748,2.748,0,0,0-.762,3.132c.228.525.635,1.033.54,1.6-.139.83-1.318,1.408-1.031,2.2.182.5.828.614,1.359.683s1.18.309,1.21.843a.945.945,0,0,1-.548.806c-.3.168-.639.251-.936.423a1.772,1.772,0,0,0,1.379,3.238c.635-.231,1.091-.918,1.635.093a4.1,4.1,0,0,1,.337,1.206c.029.164.058.327.093.49.163.767.57,2.051,1.626,1.822a2.825,2.825,0,0,0,.746-.388,2.192,2.192,0,0,1,2.216.066c.217.14.427.371.375.624-.064.309-.46.411-.775.379a1.631,1.631,0,0,0-.931.021,1.4,1.4,0,0,0-.49.658c-.127.247-.323.506-.6.523a.911.911,0,0,1-.568-.248c-.967-.728-1.688-1.73-2.8-.713a2.114,2.114,0,0,0-.435.563c-.487-.854-1.194-2.045-2.008-3.264-2.131-3.193-3.82-4.839-5.164-5.031-2.511-.358-13.227,2.478-16.433,3.35-.023-.691-.017-1.39.025-2.1.052-.884.129-1.692.2-2.475a27.67,27.67,0,0,0,.185-4.021c.447.031.895.051,1.342.051a20.31,20.31,0,0,0,12.311-4.18c.2-.153.4-.311.594-.47a7.81,7.81,0,0,1,2.828-1.7,7.723,7.723,0,0,1,2.226-.1c.354.017.72.036,1.085.033.526,0,1.717-.479,2.146-.31.448.177.462.861.233,1.208a2.654,2.654,0,0,1-.793.693" transform="translate(-1250.848 -188.859)" fill="#dddfe0"/>
      <path id="Path_261" data-name="Path 261" d="M1748.99,111.665l-.1.051c-.154.076-.391.168-.643.265a4.574,4.574,0,0,0-2.275,1.362c-.583.882-.125,2.035-1.443,1.988a2.837,2.837,0,0,0-2.766,1.62l-.043.067c-.359.628-1.177,1.982-2.055,1.391-.6-.4-.265-1.227-1.2-1.16a2.067,2.067,0,0,0-1.465.785,3.348,3.348,0,0,0-.5,2.329c.011.133.025.267.038.4a13.883,13.883,0,0,1-.66,4.085.851.851,0,0,1-.185.446c-.249.25-.676.1-.966-.1-1.272-.883-1.068.4-2.077.5-.835.086-1.08-.717-1.966-.066-.492.362-.651.771-1.265.947a4.069,4.069,0,0,1-1.6.048,13.765,13.765,0,0,1-3.322-1.025,4.017,4.017,0,0,1-3.153-3.592l-2.037-7.625a1.868,1.868,0,0,0,.666-.964c.031-.08.061-.16.1-.233.2-.4.052-.841.427-1.176a.726.726,0,0,1,.861-.1c.275.185.358.567.626.762.41.3,1.013-.106,1.177-.506a2.009,2.009,0,0,0-.3-1.542l-.065-.119a1.853,1.853,0,0,1-.26-.627c-.039-.451.541-1.172,1.378-1.714a2.4,2.4,0,0,0,.583-3c-.088-.215-.188-.421-.285-.622a3.148,3.148,0,0,1-.443-1.389,3.112,3.112,0,0,1,.463-1.228,6.684,6.684,0,0,0,.468-1.012,6.369,6.369,0,0,0,.225-2.22c-.005-.27-.01-.524,0-.775a8.732,8.732,0,0,1,.784-3.516c.418-.767,1.093-.992,1.114-2.012.011-.552-.119-1.1-.154-1.648a2.167,2.167,0,0,1,.4-1.564,1.057,1.057,0,0,1,1.468-.174c.352.343.32.914.528,1.359.955,2.051,3.5.016,4.332-.927s1.295-1.392,2.346-1.044c2.121.7,3.135,1.92,3.615,4.35l1.531,7.733c.367,1.856,1.091,3.341,3.014,3.76.339.074,1.037.092,1.26.385.287.375-.022.858.028,1.278.071.6.563,1.029.863,1.5a3.065,3.065,0,0,0,1.533,1.467c.782.31,4.245-.026,3.179,1.61a4.314,4.314,0,0,1-1.761,1.187" transform="translate(-1276.953 -65.566)" fill="#dddfe0"/>
      <path id="Path_262" data-name="Path 262" d="M221.588,996.381v18.679c0,.569.026,1.145,0,1.714-.033.739-.273,1.076.392,1.591.18.139,2.034.5,1.94.1-.1-.416.438-.771.862-.656a1.33,1.33,0,0,1,.826.93c.133.407.17.842.338,1.236a4.13,4.13,0,0,0,.878,1.173,11.427,11.427,0,0,0,3.669,2.91.651.651,0,0,1,.631.726.947.947,0,0,1-.736.73,1.846,1.846,0,0,1-1.092-.121c-1.689-.654-1.709-2.516-3.668-3.033a5.538,5.538,0,0,1-1.038-.3.974.974,0,0,1-.6-.811c0-.343.266-.627.375-.953s-.1-.81-.44-.726a1.875,1.875,0,0,1-2.868-.174,14.2,14.2,0,0,0-3.765.051,3.391,3.391,0,0,1-2.321-.347c-.676-.352-.761-1.07-1.65-1.046-.076,0-.262.8-.706.81a2.176,2.176,0,0,1-1.092-.785c-.372-.7.557-.993.305-1.681-.352-.961-2.495-1.229-3.019-.331-.324.555-.005,1.235.165,1.851s0,1.494-.66,1.543c-.361.027-.671-.23-1.014-.341a2.026,2.026,0,0,0-1.947.685,18.268,18.268,0,0,1-1.442,1.59c-.255.2-2.6,1.143-2.855.891a.449.449,0,0,1,.09-.61c.167-.161.394-.252.567-.405a.473.473,0,0,0,.143-.608,1.568,1.568,0,0,1-.822-.294c-.358-.318-.11-.746.069-1.082a.832.832,0,0,1,1.213-.318,1.307,1.307,0,0,0,.563-1.487,3.938,3.938,0,0,1-.3-.8,1.089,1.089,0,0,1,.928-1.044,3.334,3.334,0,0,1,1.53.155c.472-1.488-.582-2.169-2.064-1.724a3.744,3.744,0,0,0-2.348,2.586,7.557,7.557,0,0,1-.7,2.126c-.419.628-1.453,1.2-2.036.709a2.87,2.87,0,0,0-.9.536.923.923,0,0,0-.272.939c.1.266.354.445.513.683a1.476,1.476,0,0,1-.328,1.8,4.6,4.6,0,0,1-1.77.935,4.552,4.552,0,0,0-1.767.939c-.782.786-.936,2.11-1.912,2.655-.89.5-2.048.1-3.02.425a4.626,4.626,0,0,0-1.889,1.608,7.532,7.532,0,0,1-2.083,1.819,3.584,3.584,0,0,1-2.714.366,4.316,4.316,0,0,0-1.853-.5c-.846.133-1.3,1.081-2.092,1.4a4.844,4.844,0,0,1-1.971.045,3.727,3.727,0,0,0-2.8.915,2.548,2.548,0,0,1-2.312,1.018,1.076,1.076,0,0,1-.6-.239.479.479,0,0,1-.117-.579,2.415,2.415,0,0,0,1.913-.758,4.763,4.763,0,0,1,1.729-1.194c1.2-.331,2.1-.019,3.118-.819s2.078-1.64,3.471-1.209c.648.2.633.3,1.276-.005a15.912,15.912,0,0,1,1.475-.783c.628-.223,1.22.21,1.873,0,1-.325.752-1.872,1.518-2.574.713-.654,2.034-.329,2.681-1.044.6-.663.2-1.743.585-2.545.185-.387.544-.688.667-1.1.225-.755-.735-.98-1.262-1.177-.359-.134-.819-.232-1.084.038-.345.352-.074,1.066-.494,1.33a.628.628,0,0,1-.764-.177,1.937,1.937,0,0,1-.335-.759,3.074,3.074,0,0,0-.779-1.444,1.4,1.4,0,0,0-1.56-.281c-.287.159-.491.449-.8.558-.574.2-1.182-.349-1.284-.933a4,4,0,0,1,.288-1.738,7.451,7.451,0,0,0,.055-3.6c-.618.157-.943.791-1.3,1.309s-1.007,1.013-1.577.731c-.678-.337-.489-1.372-.974-1.941-.217-.255-.551-.392-.777-.638a1.081,1.081,0,0,1-.152-1.224,1.151,1.151,0,0,1,1.131-.562,1.148,1.148,0,0,0-.16-1.321,6.6,6.6,0,0,0-1.093-.939,1.79,1.79,0,0,1-.753-1.173c-.1-1.437,2.779-1.733,3.21-3.1.106-.335.11-.726.364-.974.384-.376,1.043-.17,1.512.1s1.018.6,1.52.391.664-.825,1.133-1.069c.839-.438,1.865.6,2.761.289.669-.234.848-1.072.8-1.762a3.257,3.257,0,0,1,.19-2.024c.174-.267.444-.467.6-.745s-.088-.81-.334-1.016a2.073,2.073,0,0,0-1.621-.359,9.979,9.979,0,0,0-1.64.48,4.552,4.552,0,0,1-4.01-.242c-1.159-.832-1.569-2.477-2.865-3.09a1.884,1.884,0,0,1-.819-.493c-.31-.45.092-1.074.6-1.307,1.092-.508,2.532.029,3.526-.644a6.662,6.662,0,0,0,.845-.829,1.947,1.947,0,0,1,1.4-.619,1.066,1.066,0,0,1,1.048.954c0,.3-.177.6-.137.9.087.653.988.792,1.665.763l2.489-.109c.661-.029,1.485-.179,1.65-.8.156-.583-.413-1.1-.943-1.412a2.719,2.719,0,0,1-1.048-.869c-.139-.244-.066-.591-.28-.794-.518-.489-1.479-.065-1.995-.635-.33-.365-.251-.914-.25-1.4a3.762,3.762,0,0,0-1.362-2.837c-.74-.621-1.737-.991-1.235-2.13.9-2.039,3.815-.934,5.276-2.175,1.012-.859,1.241-2.423,2.384-3.108a5.927,5.927,0,0,1,2.471-.488,4.7,4.7,0,0,0,2.453-1.183c.524-.407,1.617-1.55,2.294-.771.182.209.28.479.471.681a1.087,1.087,0,0,0,1.3.178c.342-.2.558-.594.94-.71a.866.866,0,0,1,1.036.651c.38,1.834,1.578.082,2.424,1.313.4.576-.062,1.427.479,1.94a3.513,3.513,0,0,0,2.733.643c1.211-.132,2.487-.487,3.608-.023.977.4,1.653,1.374,2.68,1.637a7.135,7.135,0,0,0,2.462-.148,6.91,6.91,0,0,1,5.172,1.613Zm9.69,29.467-.01,0c-.929.48-.2,1.7.312,2.148a1.783,1.783,0,0,1,.719,1.067c.078.847.082.88.807,1.358.5.332.567.72.887,1.169.18.252.792.677.987.127s-.955-.834-1.085-1.292c-.135-.477.439-.961.265-1.427-.156-.415-.752-.447-1.1-.737a1.448,1.448,0,0,1-.4-1.017c-.056-.643-.436-1.885-1.39-1.4m6.03,7.983a4.932,4.932,0,0,0,.037.82c.272.879,1.621.835,2.181,1.478.259.3.747,1.013,1.017.342a1.138,1.138,0,0,0-.338-1,10.342,10.342,0,0,0-1.077-.577c-.641-.439-.614-1.1-.824-1.742-.2-.6-.843-.746-1.087-1.307-.091-.21-.12-.5-.343-.566a.4.4,0,0,0-.406.167,1.078,1.078,0,0,0,.172,1.237,2.772,2.772,0,0,1,.669,1.15m3.953-.842c.709.35.443,1.887,1.077,1.952.683.07.757-1.025.722-1.43a2.779,2.779,0,0,0-.905-1.758,22.211,22.211,0,0,0-2.244-1.459c-2.2-1.594-2.73-4.724-4.922-6.326a9.445,9.445,0,0,1-2.121-1.561c-.323-.42-.492-.935-.811-1.357a1.281,1.281,0,0,0-1.388-.556c-.521.2-.192.948-.81,1.224a1.031,1.031,0,0,0-.393.207.414.414,0,0,0,.061.54,1.045,1.045,0,0,0,.546.248c.741.153.954.635,1.413,1.192.286.347.692.452,1.005.755a2.536,2.536,0,0,1,.687,1.521,2.082,2.082,0,0,0,.089.571.492.492,0,0,0,.44.335.5.5,0,0,0,.413-.527,3.1,3.1,0,0,0-.171-.711.685.685,0,0,1,.135-.685c.886-.779,1.141,1.379,1.168,1.688a3.688,3.688,0,0,0,2,2.843,4.2,4.2,0,0,1,1.384,1.655c.212.413.328,1.122.708,1.4.527.381,1.332-.045,1.918.244m-42.076-9.469c.044-.239.091-.456-.224-.459-.789-.01-.7,1.157-.882,1.635-.258.674-.94.791-1.566,1.044a2.394,2.394,0,0,0-1.4,1.428c-.192.577-.02,1.172-.49,1.656-.189.194-.461.43-.34.67.09.178.34.2.543.175a2.21,2.21,0,0,0,1.593-1.06c.148-.257.24-.544.409-.788a.863.863,0,0,1,.752-.417,2.18,2.18,0,0,1,.641.284c.676.311,1.8-.143,1.488-1.013-.14-.4-.625-.508-.589-.964a1.441,1.441,0,0,1,.787-.918c.31-.126.642.044.888-.292.4-.546-.172-.5-.579-.427-.253.047-.763.154-.973-.06a.54.54,0,0,1-.059-.492M168.177,1034.5c-.138-.32-.62-.333-.934-.168a10.428,10.428,0,0,1-.887.58c-.617.249-1.3-.087-1.955-.217-.592-.116-1.531.109-1.221.865.337.824,1.263.333,1.858.171a3.9,3.9,0,0,1,1.357.013,2.243,2.243,0,0,0,1.229-.369,1.51,1.51,0,0,0,.452-.348.535.535,0,0,0,.1-.529m-9.965,1.6a8.688,8.688,0,0,0,2.252.178,1.5,1.5,0,0,0,.571-.131.583.583,0,0,0,.335-.443.6.6,0,0,0-.421-.562,1.864,1.864,0,0,0-.758-.071l-2.081.091c-.226.01-.493.044-.6.24a.42.42,0,0,0,.155.5,1.255,1.255,0,0,0,.543.2m18.188-22.6a1,1,0,0,0-.642-.938,3.715,3.715,0,0,0-2.172.048c-.332.11-.617.476-.464.782a.749.749,0,0,0,.682.316,2.359,2.359,0,0,1,.79.055c.481.181.282.555.893.54a.991.991,0,0,0,.913-.8" transform="translate(-116.962 -724.083)" fill="#dddfe0"/>
    </g>
  </g>
</svg>
