<svg xmlns="http://www.w3.org/2000/svg" width="14.373" height="13.81" viewBox="0 0 14.373 13.81">
  <g id="Icon_feather-shopping-cart" data-name="Icon feather-shopping-cart" transform="translate(-0.5 -0.5)">
    <path id="Path_7" data-name="Path 7" d="M13.125,30.562A.562.562,0,1,1,12.562,30,.562.562,0,0,1,13.125,30.562Z" transform="translate(-6.563 -17.815)" fill="none" stroke="#3e4852" stroke-linecap="round" stroke-linejoin="round" stroke-width="2"/>
    <path id="Path_8" data-name="Path 8" d="M29.625,30.562A.562.562,0,1,1,29.062,30,.562.562,0,0,1,29.625,30.562Z" transform="translate(-16.877 -17.815)" fill="none" stroke="#3e4852" stroke-linecap="round" stroke-linejoin="round" stroke-width="2"/>
    <path id="Path_9" data-name="Path 9" d="M1.5,1.5H3.75L5.257,9.03a1.125,1.125,0,0,0,1.125.905h5.466a1.125,1.125,0,0,0,1.125-.905l.9-4.718H4.312" fill="none" stroke="#3e4852" stroke-linecap="round" stroke-linejoin="round" stroke-width="2"/>
  </g>
</svg>
