<svg id="Layer_1" data-name="Layer 1" xmlns="http://www.w3.org/2000/svg" viewBox="0 0 14.37 13.81"><defs><style>.cls-1{fill:none;stroke:#87c38e;stroke-linecap:round;stroke-linejoin:round;stroke-width:2px;}</style></defs><g id="Icon_feather-shopping-cart" data-name="Icon feather-shopping-cart"><path id="Path_7" data-name="Path 7" class="cls-1" d="M6.06,12.25a.56.56,0,0,1-1.12,0,.57.57,0,0,1,.56-.57.57.57,0,0,1,.56.57Z"/><path id="Path_8" data-name="Path 8" class="cls-1" d="M12.25,12.25a.56.56,0,0,1-.56.56.57.57,0,0,1-.57-.56.58.58,0,0,1,.56-.57.57.57,0,0,1,.57.57Z"/><path id="Path_9" data-name="Path 9" class="cls-1" d="M1,1H3.25L4.76,8.53a1.11,1.11,0,0,0,1.12.9h5.47a1.11,1.11,0,0,0,1.12-.9l.9-4.72H3.81"/></g></svg>