<svg xmlns="http://www.w3.org/2000/svg" width="110" height="93.334" viewBox="0 0 110 93.334">
  <g id="eye" transform="translate(-1.215 -2.72)">
    <path id="Path_207" data-name="Path 207" d="M47.934,28.177A19.757,19.757,0,1,1,28.177,8.42,19.737,19.737,0,0,1,47.934,28.177Z" transform="translate(28.038 21.238)" fill="none" stroke="#3e4852" stroke-linecap="round" stroke-linejoin="round" stroke-width="2"/>
    <path id="Path_208" data-name="Path 208" d="M56.215,95.054c19.481,0,37.637-11.479,50.275-31.346,4.967-7.781,4.967-20.861,0-28.642C93.852,15.2,75.7,3.72,56.215,3.72S18.578,15.2,5.94,35.066C.973,42.847.973,55.926,5.94,63.708,18.578,83.575,36.734,95.054,56.215,95.054Z" transform="translate(0 0)" fill="none" stroke="#3e4852" stroke-linecap="round" stroke-linejoin="round" stroke-width="2"/>
  </g>
</svg>
