<svg xmlns="http://www.w3.org/2000/svg" width="18.878" height="18.913" viewBox="0 0 18.878 18.913">
  <path id="Icon_feather-phone" data-name="Icon feather-phone" d="M20.045,15.661v2.546a1.7,1.7,0,0,1-1.85,1.7A16.793,16.793,0,0,1,10.871,17.3,16.547,16.547,0,0,1,5.78,12.207,16.793,16.793,0,0,1,3.175,4.85,1.7,1.7,0,0,1,4.863,3H7.409a1.7,1.7,0,0,1,1.7,1.46A10.9,10.9,0,0,0,9.7,6.844a1.7,1.7,0,0,1-.382,1.791L8.241,9.712A13.577,13.577,0,0,0,13.332,14.8l1.078-1.078a1.7,1.7,0,0,1,1.791-.382,10.9,10.9,0,0,0,2.385.594,1.7,1.7,0,0,1,1.46,1.723Z" transform="translate(-2.167 -2)" fill="none" stroke="#3e4852" stroke-linecap="round" stroke-linejoin="round" stroke-width="2"/>
</svg>
