<svg xmlns="http://www.w3.org/2000/svg" width="47.67" height="42.021" viewBox="0 0 47.67 42.021">
  <g id="quote-up" transform="translate(0.75 0.75)">
    <path id="Path_209" data-name="Path 209" d="M21.316,18.29a5.807,5.807,0,0,0-5.95-5.95H7.94a5.965,5.965,0,0,0-5.95,5.95V31.666" transform="translate(-1.99 -12.317)" fill="none" stroke="#3e4852" stroke-linecap="round" stroke-linejoin="round" stroke-width="1.5"/>
    <path id="Path_210" data-name="Path 210" d="M2,14.979H15.376a5.737,5.737,0,0,0,4.981-2.629" transform="translate(-1.977 4.347)" fill="none" stroke="#3e4852" stroke-linecap="round" stroke-linejoin="round" stroke-width="1.5"/>
    <path id="Path_211" data-name="Path 211" d="M2,3.28C2,17.232,4.606,19.539,12.447,24.2" transform="translate(-1.977 16.046)" fill="none" stroke="#3e4852" stroke-linecap="round" stroke-linejoin="round" stroke-width="1.5"/>
    <path id="Path_212" data-name="Path 212" d="M13.63,31.676H27.006a5.807,5.807,0,0,0,5.95-5.95V18.3a5.807,5.807,0,0,0-5.95-5.95H19.58a5.965,5.965,0,0,0-5.95,5.95V31.676" transform="translate(13.214 -12.35)" fill="none" stroke="#3e4852" stroke-linecap="round" stroke-linejoin="round" stroke-width="1.5"/>
    <path id="Path_213" data-name="Path 213" d="M13.63,3.28c0,13.952,2.606,16.259,10.447,20.917" transform="translate(13.214 16.046)" fill="none" stroke="#3e4852" stroke-linecap="round" stroke-linejoin="round" stroke-width="1.5"/>
  </g>
</svg>
